<svg xmlns="http://www.w3.org/2000/svg" xml:space="preserve" style="fill-rule:evenodd;clip-rule:evenodd;stroke-linejoin:round;stroke-miterlimit:2" viewBox="0 0 1254 1254"><path d="M1076 1254H176v-1c-43.12-4.83-90.49-22.6-119.81-56.12-1.74-2.12-3.48-4.2-5.32-6.24-30.65-33.45-45.83-73.45-49.67-118.28-.07-.8-.14-1.58-.2-2.36H0V180h1c2.67-25.5 8.16-49.67 20.13-72.55.64-1.17 1.25-2.31 1.87-3.45 5.13-9.72 10.69-18.77 17.32-27.54.91-1.18 1.8-2.32 2.68-3.46 5.61-7.41 11.7-13.81 18.62-20.03 1.15-1.01 2.26-1.99 3.38-2.97C95.93 22.43 131.71 7.6 172.27 1.66c1.61-.22 3.17-.44 4.73-.66V0h899v1c36.45 4.66 71.08 15.95 100.59 38.34 1.16.9 2.29 1.78 3.41 2.66 8.13 6.34 15.43 13.02 22.31 20.69 1.23 1.44 2.46 2.87 3.69 4.31 27.55 30.52 42.2 68.7 46.52 109.23.16 1.62.32 3.2.48 4.77h1v895h-1c-5.38 46.08-22.03 89.1-55.84 122-1.08 1.02-2.12 2.01-3.16 3-31.52 29.96-70.77 46.54-113.64 51.52-1.48.16-2.92.32-4.36.48z" style="fill:#12191a"/><path d="M503.877 395.753c1.64 0 3.29-.01 4.98-.01 1.83 0 3.66.01 5.48.01h5.76c5.22-.01 10.43 0 15.65.01 5.45.01 10.9.01 16.36.01 9.15 0 18.3.01 27.45.02 10.6.02 21.2.02 31.79.02 10.18 0 20.36.01 30.54.01 4.34.01 8.68.01 13.02.01 5.1 0 10.2.01 15.3.02h5.64c2.55 0 5.1.01 7.66.01 2.14.01 2.14.01 4.34.01 3.15.13 3.15.13 4.15 1.13.11 3.05.15 6.09.14 9.15.01.96.01 1.92.02 2.91 0 2.1.01 4.19.01 6.29.01 3.32.02 6.64.04 9.96.06 9.45.1 18.89.12 28.34.01 5.77.04 11.54.08 17.31.01 2.2.02 4.4.02 6.6-.01 3.08.02 6.17.04 9.25 0 .9-.01 1.8-.02 2.73.16 10.51 4.14 17.43 12.49 23.64 6.18 3.66 11.75 4.12 18.82 4.12 1.44.01 1.44.01 2.92.03 3.18.02 6.35.03 9.53.05 2.21.01 4.42.03 6.63.05 5.8.04 11.6.08 17.41.11 9.31.05 18.62.12 27.93.19 3.25.02 6.51.04 9.77.05 1.98.02 3.96.03 5.95.04.91.01 1.82.01 2.76.01 6.23.05 6.23.05 7.34 1.17.1 2 .12 4 .12 6 .01 1.96.01 1.96.01 3.96-.01 1.44-.01 2.89-.01 4.38v4.58c0 4.16-.01 8.32-.02 12.48v13.02l-.03 24.68c-.01 9.37-.01 18.73-.02 28.09-.01 19.27-.02 38.54-.05 57.81-6.2-.75-12.16-1.87-18.24-3.28-42.29-8.09-84.08 6.95-114.76 36.28-.66.6-1.32 1.19-2 1.81-26.25 24.6-37.45 60.33-38.6 95.31-.29 7.77-.29 7.77-1.4 8.88-1.83.1-3.66.14-5.49.15-1.79.01-1.79.01-3.62.03-1.32 0-2.64.01-4 .01-1.38.01-2.76.02-4.19.02-4.6.03-9.2.05-13.79.06l-4.75.02c-6.59.02-13.17.04-19.76.05-9.44.01-18.87.05-28.31.1-7.44.05-14.87.06-22.31.07-3.16.01-6.32.02-9.48.05-4.43.03-8.85.03-13.28.02-1.3.02-2.61.03-3.96.05-9.66-.07-16.58-1.99-22.06-10.63-1.73-4.38-2.25-8.03-2.25-12.73l-.02-4.09c0-1.47.01-2.95.01-4.47 0-2.35 0-2.35-.01-4.76q-.015-6.54 0-13.08c0-4.7-.01-9.41-.02-14.11-.01-9.22-.01-18.43-.01-27.64v-22.47c0-1.07-.01-2.13-.01-3.23v-6.49c-.01-20.3-.01-40.61 0-60.91 0-18.57-.01-37.15-.03-55.73-.02-19.07-.02-38.14-.02-57.21 0-10.7 0-21.41-.02-32.12-.01-9.12-.01-18.23 0-27.35q.015-6.975 0-13.95c-.01-5.04 0-10.08.01-15.13-.01-1.47-.02-2.94-.02-4.45.06-11.13.97-18.14 10.39-25.08 4.51-2.25 6.89-2.25 11.88-2.25" style="fill:#fefefe;fill-rule:nonzero" transform="translate(-192.362 -157.256)scale(1.28923)"/><path d="M769.625 690.688c1.33 0 2.66.01 4.03.01 36.75.42 69.67 19.44 89.2 50.63 21.18 36.29 21.33 75.93 1.89 113.05-3.41 6.29-3.41 6.29-5.74 8.62-.01 5.32 3.45 7.93 7.04 11.47q4.081 4.07 8.2 8.1l4.35 4.32c3.82 3.79 7.65 7.58 11.49 11.35 6.13 6.05 12.26 12.12 18.37 18.19l6.43 6.34c1.32 1.29 2.63 2.59 3.94 3.89 1.14 1.13 2.29 2.26 3.47 3.43 5.42 5.85 5.53 11.32 4.71 18.91-2.83 5.86-6.68 9.42-13 11-9.61.96-14.43-3.06-20.44-9.87-5.36-5.91-10.93-11.58-16.58-17.21-.91-.9-1.81-1.8-2.75-2.73-2.82-2.81-5.65-5.63-8.49-8.44-3.75-3.73-7.51-7.46-11.26-11.2l-2.57-2.55c-4.86-4.83-9.44-9.8-13.91-15-1-.99-1.99-1.98-3-3-4.2 1.05-6.93 2.6-10.63 4.81-32.06 18.51-70.27 19.07-103.06 2.31-7.39-4.06-13.94-8.62-20.31-14.12-.73-.56-1.45-1.13-2.2-1.72-27.12-22.12-38.6-60.4-35.8-94.28 3.34-25.38 14.83-48.04 33-66l2.75-2.75c6.48-6.19 13.44-10.88 21.25-15.25.83-.47 1.66-.94 2.51-1.43 14.88-7.94 30.43-10.95 47.11-10.88" style="fill:#1cc8bb;fill-rule:nonzero" transform="translate(-192.362 -157.256)scale(1.28923)"/><path d="M623.813 226.75c1.05 0 2.11.01 3.19.01 15.09.05 30.02.31 45 2.24 1.52.18 1.52.18 3.07.36 57.43 6.78 116.96 29.01 162.93 64.64-2 4-2 4-4.25 6.19-4.56 4.66-7.85 10-10.75 15.81-4.49-1.12-6.96-2.87-10.75-5.5-7.85-5.31-15.92-9.99-24.25-14.5-1.57-.87-3.13-1.75-4.7-2.62-14.24-7.83-29.09-13.73-44.3-19.38-.97-.36-1.94-.73-2.94-1.1-14.81-5.5-30.08-9.07-45.56-12.15l-3.66-.75c-18.72-3.59-37.45-4.33-56.46-4.26-3.31.01-6.63 0-9.95-.01-18.21-.02-36.41.86-54.37 4.02-.98.17-1.97.34-2.98.52-30.3 5.46-59.51 15.08-87.08 28.73-1.4.68-1.4.68-2.83 1.36a300.7 300.7 0 0 0-60.17 38.64c-1.07.88-2.13 1.75-3.23 2.66-15.3 12.76-30.46 26.24-42.84 41.91-1.67 2.1-3.45 4.12-5.24 6.12-27.36 31.18-47.22 70.33-60.69 109.31-.29.84-.58 1.67-.88 2.54-4.04 11.75-6.99 23.65-9.55 35.79-.53 2.49-1.1 4.97-1.67 7.46-13.69 62.62-8.31 135.77 16.1 195.21.65 1.64 1.29 3.27 1.93 4.91 4.08 10.23 8.44 20.28 13.19 30.22.48 1 .96 2.01 1.45 3.04.47.98.95 1.96 1.44 2.96.47.99.94 1.97 1.43 2.99 1.48 2.91 1.48 2.91 3.47 5.42 7.47 10.28 5.85 22.09 5.52 34.21l-.09 6.77c-.08 5.5-.2 10.99-.34 16.48-4.02 0-6.47-6.04-8.63-9.19-.95-1.37-.95-1.37-1.92-2.78-11.59-16.86-21.57-34.6-30.45-53.03-.37-.74-.74-1.47-1.11-2.23-12.89-25.99-22.03-54.4-27.89-82.77l-1.14-5.16c-1.89-8.81-3.35-17.65-4.55-26.59-.18-1.33-.18-1.33-.36-2.68-1.95-15.45-2.14-30.92-2.14-46.47 0-3.33-.02-6.66-.04-9.99-.03-13.18.6-26.03 2.23-39.11.18-1.54.18-1.54.36-3.12 4.58-37.57 15.15-73.41 30.64-107.88.36-.8.71-1.61 1.08-2.43 16.71-37.2 40.52-70.54 67.92-100.57.9-1 1.79-2.01 2.72-3.04 4.51-5 8.98-9.81 14.14-14.14 2.67-2.27 5.2-4.67 7.76-7.07 6.51-5.98 13.36-11.39 20.38-16.75 1.87-1.45 1.87-1.45 3.77-2.94 19.61-15.04 40.96-27.39 63.23-38.06.74-.36 1.48-.71 2.25-1.08 21.49-10.21 43.57-17.58 66.68-23.17 2.03-.5 4.06-1.01 6.09-1.54 7.09-1.84 14.17-3.19 21.41-4.27 1.01-.16 2.02-.32 3.07-.49 18.45-2.82 36.67-3.8 55.31-3.7" style="fill:#fcfcfc;fill-rule:nonzero" transform="translate(-192.362 -157.256)scale(1.28923)"/><path d="M388.688 503.875c1.16 0 2.32-.01 3.51-.01 2.8.13 2.8.13 3.8 1.13.1 1.88.13 3.77.13 5.65.01 1.23.01 2.46.01 3.73v4.16c0 1.45.01 2.89.01 4.38.01 4.03.01 8.05.01 12.08 0 4.34.01 8.68.02 13.01.01 7.53.02 15.05.02 22.57.01 11.89.03 23.78.05 35.67l.03 12.2v3.08l.06 34.73c0 1.06 0 2.12.01 3.21l.06 51.44c.01 17.59.04 35.19.08 52.78.03 10.86.04 21.72.04 32.57 0 7.45.02 14.89.04 22.33.01 4.3.02 8.59.01 12.89 0 4.66.01 9.31.03 13.97-.01 1.36-.01 2.71-.02 4.11.2 27.58 21.29 44.14 43.01 57.69 7.25 4.25 14.59 7.69 22.4 10.75 5.11 2.11 10.07 4.46 15.03 6.88 9.85 4.78 19.69 9.33 29.97 13.12 2.2.83 2.2.83 4.45 1.67 19.21 7.07 38.79 12.05 58.93 15.65l4.1.73c17.54 3 34.86 4.35 52.65 4.27 1.35-.01 1.35-.01 2.72-.01 25.21-.09 49.85-2.04 74.51-7.5l3.67-.79c1.06-.25 2.12-.49 3.21-.74 5.55-.55 7.95 2.86 11.07 6.85 2.84 3.57 5.7 7.06 8.76 10.44 2.93 3.43 2.93 3.43 2.93 5.43-8.57 3.09-17.13 5.29-26.06 7.07-1.28.25-2.56.51-3.88.78-3.68.73-7.37 1.45-11.06 2.15-.9.18-1.8.35-2.73.53-54.64 10.33-114.97 5.28-167.83-11.21-1.1-.34-2.19-.68-3.32-1.03-32.63-10.31-62.25-24.96-91.63-42.36-3.12-1.72-6.07-2.99-9.42-4.17-24.14-9.08-49.86-23.18-56.66-50.1-1.49-7.65-1.69-15.08-1.67-22.86-.01-1.4-.01-2.79-.02-4.23-.01-4.66-.01-9.32-.01-13.97 0-3.35-.01-6.7-.02-10.04-.01-8.14-.02-16.27-.02-24.41 0-6.61-.01-13.22-.01-19.83q-.03-28.14-.03-56.28v-6.13c0-16.4-.02-32.8-.04-49.2-.03-16.86-.05-33.71-.05-50.57.01-9.45 0-18.91-.02-28.37-.02-8.05-.02-16.09-.01-24.14.01-4.11 0-8.21-.01-12.32-.02-4.45-.01-8.9.01-13.35l-.03-3.92c.09-12.73 4.4-22.33 15.21-29.47 4.81-2.27 8.76-2.7 14-2.69" style="fill:#1bc6b9;fill-rule:nonzero" transform="translate(-192.362 -157.256)scale(1.28923)"/><path d="M450.25 448.875c1.43 0 2.86-.01 4.33-.01 3.42.13 3.42.13 4.42 1.13.1 1.93.12 3.86.12 5.78 0 1.27.01 2.53.01 3.83-.01 1.41-.01 2.81-.01 4.26v14.27c-.01 5.31-.01 10.62-.01 15.92v20.12c-.01 13.19 0 26.37.02 39.56v6.22c.01 4.2.01 8.4.01 12.61l.03 32.42c0 1.09 0 2.17.01 3.29.01 17.57 0 35.14-.01 52.71-.01 18.03 0 36.06.04 54.09.02 11.13.02 22.25-.01 33.37-.01 7.63 0 15.26.02 22.89q.03 6.6 0 13.2c-.02 4.78 0 9.55.03 14.33-.02 1.38-.03 2.77-.05 4.19.14 11.99 3.7 20.92 13.8 27.94 7.92 4.42 14.73 4.58 23.7 4.55l4.41.03c4.79.03 9.57.03 14.36.03 3.33.02 6.66.04 9.99.05 7.85.04 15.7.07 23.55.08 8.94.01 17.89.05 26.83.09 18.39.09 36.77.14 55.16.17 1.88 4.37 3.67 8.73 5.31 13.19 2.15 5.67 4.71 11 7.55 16.35 1.14 2.46 1.14 2.46 1.14 5.46-24.04.08-48.09.13-72.13.16-11.17.02-22.33.04-33.5.07-9.73.03-19.47.05-29.2.06q-7.725 0-15.45.03c-4.86.02-9.72.03-14.57.02-1.78.01-3.55.01-5.33.02-20.02.13-37.3-3.27-49.01-20.86-6.24-11.23-7.4-23.3-7.31-35.92-.01-1.48-.01-2.95-.02-4.48-.01-4.05 0-8.11.01-12.17.01-4.39 0-8.78-.01-13.18-.01-8.58 0-17.17.01-25.75.02-10 .01-20.01.01-30.01-.01-17.85.01-35.69.03-53.54.03-17.31.03-34.62.02-51.93-.01-18.87-.01-37.74.01-56.61v-9.04c.01-6.97 0-13.94 0-20.91 0-8.49 0-16.98.02-25.47.01-4.34.02-8.67.01-13-.01-4.69.01-9.38.02-14.08 0-1.37-.01-2.74-.02-4.15.08-11.23 2.72-20.56 12.41-27.26 6.53-3.67 11.79-4.13 19.25-4.12" style="fill:#1bc7b9;fill-rule:nonzero" transform="translate(-192.362 -157.256)scale(1.28923)"/><path d="M821 738c.81.65 1.61 1.31 2.44 1.98C843.8 757.04 852.19 783.05 850 809c-5.07 29.72-22.38 53.04-49.95 65.31-25.13 9.75-54.01 5.94-75.7-9.99-23.24-19.2-35-45.12-32.35-75.32 4.17-28.93 22.92-50.9 48.66-63.28 26.47-11.39 58.72-7.1 80.34 12.28" style="fill:#131a1b;fill-rule:nonzero" transform="translate(-192.362 -157.256)scale(1.28923)"/><path d="M507.003 937.998c1.46.55 2.93 1.1 4.43 1.67 19.22 7.06 38.8 12.04 58.94 15.64 2.03.37 2.03.37 4.1.74 17.54 2.99 34.87 4.34 52.65 4.26h2.73c25.21-.1 49.85-2.05 74.5-7.5 1.21-.26 2.42-.53 3.67-.8l3.22-.73c5.55-.56 7.94 2.86 11.07 6.85 2.83 3.57 5.7 7.05 8.75 10.43 2.94 3.44 2.94 3.44 2.94 5.44-8.58 3.09-17.13 5.29-26.07 7.06-1.28.26-2.55.52-3.87.78-3.69.74-7.37 1.45-11.06 2.16-.91.18-1.81.35-2.74.53-54.64 10.32-114.97 5.27-167.83-11.22-1.09-.34-2.19-.68-3.32-1.03-32.66-10.31-62.22-25.02-91.66-42.37-3.69-2.04-7.36-3.47-11.32-4.88-2.13-1.03-11.671-4.959-11.671-4.959l57.536-2.074" style="fill:#fcfcfc;fill-rule:nonzero" transform="translate(-192.362 -157.256)scale(1.28923)"/><path d="M994 489c2.04 1.08 2.04 1.08 4.12 2.19 11.59 8.4 18.51 20.28 18.19 34.78-1.6 15.54-9.71 27.73-23.5 34.91-11.79 5.75-25.91 4.43-37.02-2.2-10.96-7.68-19.09-19.37-19.23-33.12.12-1.85.26-3.71.44-5.56.06-1.2.12-2.39.19-3.62 3.44-14.31 14.29-25.82 28.16-30.51 9.94-2.36 19.65-1.73 28.65 3.13" style="fill:#1cc9bc;fill-rule:nonzero" transform="translate(-192.362 -157.256)scale(1.28923)"/><path d="M992.945 706.816c10.19 10.92 13.68 24.54 10.37 39.21-.94 2.47-2.01 4.68-3.32 6.97-.65 1.17-.65 1.17-1.32 2.36-7.13 11.63-17.27 18.67-31.08 19.19-16.13.12-26.53-4.64-36.03-18.05-6.79-11.22-8.77-26.17-2.89-38.3 14.09-23.47 43.03-31.21 64.27-11.38" style="fill:#1dc8bb;fill-rule:nonzero" transform="translate(-192.362 -157.256)scale(1.28923)"/><path d="M893.863 304.059c11.46 10.41 16.29 24.03 13.71 39.49-3.71 14.28-13.01 24.27-26.57 29.45-15.19 3.8-28.89.77-40.5-9.69-9.93-10.9-11.89-24.06-10.5-38.31 8.48-27.08 40.97-40.08 63.86-20.94" style="fill:#1cc8bb;fill-rule:nonzero" transform="translate(-192.362 -157.256)scale(1.28923)"/><path d="M716 402c3.49 1.74 5.16 2.91 7.82 5.57.75.74 1.49 1.48 2.26 2.24.81.81 1.62 1.63 2.45 2.46.86.86 1.72 1.71 2.6 2.6 2.85 2.83 5.68 5.67 8.51 8.51 1.97 1.96 3.93 3.93 5.9 5.89 4.12 4.12 8.24 8.24 12.36 12.37 5.29 5.3 10.59 10.59 15.89 15.88 4.06 4.05 8.12 8.11 12.17 12.18 1.96 1.95 3.91 3.9 5.87 5.85 2.72 2.72 5.44 5.45 8.16 8.18.81.81 1.63 1.62 2.47 2.46 5.54 5.58 5.54 5.58 5.54 7.81-11 .09-21.99.16-32.99.21-5.1.02-10.21.05-15.32.09-4.92.05-9.85.07-14.78.08-1.88.01-3.76.02-5.64.04-2.63.03-5.27.04-7.9.03l-4.54.03c-5.59-.7-7.78-2.91-10.83-7.48-.18-2.71-.24-5.43-.23-8.14v-2.52c0-2.74.02-5.48.03-8.23.01-1.9.01-3.8.01-5.7.01-5.01.03-10.01.05-15.02.02-5.11.03-10.21.04-15.32.02-10.02.06-20.05.1-30.07" style="fill:#fefefe;fill-rule:nonzero" transform="translate(-192.362 -157.256)scale(1.28923)"/><path d="M549.16 577.853c1.32-.01 2.63-.01 3.99-.02 1.45 0 2.9-.01 4.39-.01 1.53-.01 3.05-.01 4.62-.02 4.18-.02 8.36-.03 12.55-.04 2.61 0 5.22-.01 7.84-.01 8.17-.02 16.35-.04 24.53-.05 9.44 0 18.88-.03 28.32-.07 7.29-.03 14.58-.05 21.88-.05 4.36 0 8.71-.01 13.07-.04 4.86-.02 9.73-.02 14.59-.01 1.44-.02 2.88-.03 4.37-.04l4.02.02c1.73 0 1.73 0 3.48-.01 5.81.9 8.6 3.32 11.19 8.5 1.09 6.12-1.8 8.79-6 13-3.3 1.1-5.76 1.13-9.24 1.15l-3.97.03c-2.15 0-2.15 0-4.36.01-1.51.01-3.02.02-4.58.02q-7.53.045-15.06.06c-1.73.01-3.45.01-5.18.02-7.19.02-14.38.04-21.57.05-10.3.01-20.6.05-30.9.1-7.24.04-14.49.06-21.73.07-4.33 0-8.65.01-12.98.05-4.82.03-9.65.03-14.48.02-2.15.03-2.15.03-4.34.05-12.15-.08-12.15-.08-16.61-5.63-1.78-5.34-1.92-8.69 1.37-13.38 3.8-3.79 5.53-3.75 10.79-3.77" style="fill:#161d1e;fill-rule:nonzero" transform="translate(-192.362 -157.256)scale(1.28923)"/><path d="m550.325 643.733 3.94-.03c2.14.01 2.14.01 4.32.01 1.51-.01 3.01-.02 4.56-.02q6.18-.03 12.36-.03c2.58 0 5.15 0 7.73-.01 8.99-.02 17.97-.02 26.96-.02 8.38 0 16.75-.02 25.13-.05 7.19-.03 14.38-.04 21.57-.04 4.3 0 8.59-.01 12.89-.03 4.79-.02 9.58-.01 14.37 0l4.31-.03c1.3.01 2.61.01 3.96.02h3.43c4.73.75 7.81 3.16 11.14 6.5.83 10.6.83 10.6-4 15-2.79 1.4-5.11 1.14-8.24 1.15l-4.04.03c-1.47 0-2.94.01-4.46.01l-4.67.03c-5.13.02-10.26.04-15.39.05-1.76.01-3.52.01-5.29.02-7.33.02-14.67.04-22 .05-10.52.01-21.04.05-31.56.11-7.39.03-14.79.05-22.18.06-4.42 0-8.83.01-13.25.05-4.93.03-9.86.03-14.78.02-1.47.02-2.93.03-4.44.05-1.35-.01-2.69-.02-4.07-.02-1.75 0-1.75 0-3.53.01-4.01-.81-5.49-2.56-8.1-5.62l-1-1c-.44-6.09-.63-9.75 4-14 4.13-2.06 5.85-2.26 10.33-2.27" style="fill:#181f20;fill-rule:nonzero" transform="translate(-192.362 -157.256)scale(1.28923)"/><path d="M910 363c16.81 8.4 31.1 39.95 40 56 .47.84.93 1.67 1.41 2.54 6.3 11.39 11.87 22.99 16.84 35.02.72 1.72.72 1.72 1.45 3.48.43 1.08.87 2.16 1.32 3.28.38.95.76 1.9 1.16 2.89.9 3.05.97 5.62.82 8.79l-2.27.26c-6.63.91-11.85 2.41-17.67 5.72C951 482 951 482 948 482c-.44-1.15-.88-2.31-1.33-3.5-13.58-35.15-32.1-66.41-54.67-96.5 2.09-4.19 4.04-5.56 7.76-8.21 3.91-3.12 7.04-6.96 10.24-10.79" style="fill:#fbfcfc;fill-rule:nonzero" transform="translate(-192.362 -157.256)scale(1.28923)"/><path d="M995 573c1 2.99 1.16 5.06 1.21 8.18l.06 3.23c.01 1.17.02 2.33.04 3.53.01 1.22.03 2.43.04 3.68q.06 5.97.09 11.94c0 1.35.01 2.7.02 4.09.05 23.96-2.02 46.83-6.46 70.35-.18 1.08-.35 2.17-.54 3.28-.38 2.26-.9 4.5-1.46 6.72-3.77 1.26-5.49.14-9.11-1.16-5.81-1.68-11.89-2.17-17.89-2.84.42-6.1 1.14-11.94 2.38-17.94 4.53-24.22 4.9-47.97 4.69-72.55l-.03-3.47c-.02-2.19-.05-4.37-.08-6.56-.07-7.37 1.04-8.48 1.04-8.48s7.96-.45 11.95-.62C984.93 574.16 995 573 995 573" style="fill:#fcfcfc;fill-rule:nonzero" transform="translate(-192.362 -157.256)scale(1.28923)"/><path d="m550.664 710.24 2.57-.03c2.8-.02 5.59 0 8.39.03 1.95 0 3.9-.01 5.85-.01 4.08-.01 8.16.01 12.25.04 5.22.04 10.45.03 15.67.01 4.03-.02 8.05-.01 12.08.01 1.92.01 3.85.01 5.78 0 2.69-.01 5.39.01 8.08.05l4.64.02c5.09.81 8.66 2.91 11.03 7.64.91 6.68-1.3 9.39-6 14-3.81 1.27-7.05 1.15-11.07 1.18l-2.49.02c-2.72.02-5.44.03-8.16.04-.92 0-1.85.01-2.81.01-4.91.02-9.83.04-14.74.05-5.08.01-10.15.04-15.23.08-3.9.03-7.81.04-11.71.04-1.87 0-3.74.02-5.62.03-2.61.03-5.23.03-7.85.02-1.49.01-2.98.01-4.52.02-6.1-.78-8.11-3.11-10.8-8.49-.65-5.02-.66-7.15 2.49-11.21 4.38-3.48 6.62-3.54 12.17-3.55" style="fill:#171e1f;fill-rule:nonzero" transform="translate(-192.362 -157.256)scale(1.28923)"/></svg>